:SAMPLES-PER-SECOND 25
:FULLY-SPECIFIED
:DEGREES
582
root  7.88756 56.1816 -21.2156 176.104 19.5833 -176.396
RightUpLeg  -14.0385 -13.0835 6.6494
RightLeg  35.0746 13.4293 9.68516
RightFoot  -17.3803 0.0157066 2.53874
RightToes  2.84633e-005 7.89722e-005 -0.000426369
Spine  1.67407 0.996863 3.9313
Spine1  2.68928 3.98577 2.92234
HEad  30.6878 4.53535 -10.8575
LeftShoulder1  -3.88251e-019 0 -3.92111e-022
LeftArm  -38.281 13.9671 -79.4496
LeftForeArm  24.6279 -0.203076 -0.0173016
LeftHand  -0.468775 -3.8365 6.16595
RightShoulder  7.45443e-017 -2.42657e-020 1.96277e-018
RightArm  -28.1248 -19.254 72.012
RightForeArm  29.2439 5.18795 5.46877
RightHand  -1.33891 9.31543 -10.9044
LeftUpLeg  -13.3407 4.01675 4.90288
LeftLeg  96.4624 -1.18156 6.22687
LeftFoot  -25.7168 0.0485234 -0.855968
LeftToes  3.91355e-005 3.11907e-005 -4.10385e-006
583
root  8.23661 56.4338 -22.3731 175.097 20.5907 -176.044
RightUpLeg  -9.72233 -12.7014 6.30225
RightLeg  33.5323 13.9452 9.52671
RightFoot  -18.8651 -0.0430899 1.28897
RightToes  2.84633e-005 7.89722e-005 -0.000426369
Spine  1.93429 1.24698 4.25206
Spine1  3.4016 4.22523 3.44266
HEad  31.4885 5.58496 -10.8587
LeftShoulder1  -3.88251e-019 0 -3.92111e-022
LeftArm  -39.2821 16.1519 -80.717
LeftForeArm  23.9514 2.62972 1.42937
LeftHand  -0.424725 -3.63574 5.72391
RightShoulder  7.45443e-017 -2.42657e-020 1.96277e-018
RightArm  -27.5903 -18.6901 71.542
RightForeArm  28.99 6.07429 6.16462
RightHand  -1.30863 9.27939 -10.6926
LeftUpLeg  -15.898 3.00623 4.00729
LeftLeg  91.0075 -0.765008 9.33784
LeftFoot  -24.1039 0.24834 0.934723
LeftToes  3.91355e-005 3.11907e-005 -4.10385e-006
584
root  8.62286 56.7907 -23.4975 174.801 20.7258 -176.113
RightUpLeg  -5.81031 -7.85604 6.90747
RightLeg  29.7002 10.0395 5.93242
RightFoot  -19.9955 -0.0851796 0.660119
RightToes  2.84633e-005 7.89722e-005 -0.000426369
Spine  1.80437 1.3825 4.10604
Spine1  3.34541 4.06436 3.31665
HEad  32.3535 6.03553 -9.74722
LeftShoulder1  -3.88251e-019 0 -3.92111e-022
LeftArm  -39.991 19.1643 -81.4093
LeftForeArm  24.8614 2.0869 2.24943
LeftHand  -0.391887 -3.39532 5.42764
RightShoulder  7.45443e-017 -2.42657e-020 1.96277e-018
RightArm  -26.4996 -19.4062 71.2248
RightForeArm  27.9547 8.44003 7.78613
RightHand  -1.23601 9.53503 -9.96196
LeftUpLeg  -18.9751 1.65894 3.14933
LeftLeg  82.7216 0.829479 11.5767
LeftFoot  -18.2122 0.425351 5.57317
LeftToes  3.91355e-005 3.11907e-005 -4.10385e-006
585
root  8.98498 57.152 -24.5907 174.682 20.6801 -177.452
RightUpLeg  -2.34398 -2.30103 6.64205
RightLeg  25.5598 5.59264 2.69477
RightFoot  -20.6682 -0.0865282 0.656481
RightToes  2.84633e-005 7.89722e-005 -0.000426369
Spine  1.45052 1.51368 3.0985
Spine1  2.80043 3.82871 1.92494
HEad  32.534 6.42753 -8.30299
LeftShoulder1  -3.88251e-019 0 -3.92111e-022
LeftArm  -40.5379 22.6442 -81.2315
LeftForeArm  24.7195 2.10221 2.56248
LeftHand  -0.346312 -3.37882 4.83607
RightShoulder  7.45443e-017 -2.42657e-020 1.96277e-018
RightArm  -23.7354 -20.3902 71.8477
RightForeArm  23.8434 11.3101 8.50575
RightHand  -1.20469 9.80996 -9.55522
LeftUpLeg  -21.7687 0.608235 1.39708
LeftLeg  72.1124 3.63416 13.3375
LeftFoot  -10.6573 -0.000232908 9.33213
LeftToes  3.91355e-005 3.11907e-005 -4.10385e-006
586
root  9.25517 57.3193 -25.6526 174.751 20.5024 -178.063
RightUpLeg  0.621025 -0.910742 6.08114
RightLeg  22.7804 4.72928 1.95591
RightFoot  -21.7157 -0.0420473 1.15661
RightToes  2.84633e-005 7.89722e-005 -0.000426369
Spine  1.28817 1.53155 2.31882
Spine1  2.60014 3.46342 1.22937
HEad  31.9988 7.01554 -7.72302
LeftShoulder1  -3.88251e-019 0 -3.92111e-022
LeftArm  -41.0829 25.2634 -80.6117
LeftForeArm  24.0844 2.11488 2.56063
LeftHand  -0.399223 -3.53907 5.44651
RightShoulder  7.45443e-017 -2.42657e-020 1.96277e-018
RightArm  -20.2179 -21.0583 72.7182
RightForeArm  18.1634 14.088 8.14955
RightHand  -1.21053 9.8894 -9.55248
LeftUpLeg  -23.0308 -0.299125 0.690935
LeftLeg  59.5348 6.07921 11.5882
LeftFoot  -4.56989 -0.531331 9.42483
LeftToes  3.91355e-005 3.11907e-005 -4.10385e-006
587
root  9.52391 57.2366 -26.7628 175.028 20.746 -177.117
RightUpLeg  3.1793 -2.10985 6.40081
RightLeg  21.7367 6.11986 2.46602
RightFoot  -23.0109 0.0177918 1.70098
RightToes  2.84633e-005 7.89722e-005 -0.000426369
Spine  1.35563 1.72937 2.13871
Spine1  2.80613 3.59794 1.91977
HEad  31.3853 7.3237 -7.77673
LeftShoulder1  -3.88251e-019 0 -3.92111e-022
LeftArm  -41.413 26.3367 -79.9438
LeftForeArm  24.8262 2.09174 2.66174
LeftHand  -0.545354 -3.40829 7.44859
RightShoulder  7.45443e-017 -2.42657e-020 1.96277e-018
RightArm  -17.8626 -21.1248 72.8705
RightForeArm  14.3146 15.4328 7.85746
RightHand  -1.2075 10.0052 -9.46292
LeftUpLeg  -22.0924 0.274387 1.84121
LeftLeg  45.8011 5.23063 6.19306
LeftFoot  1.66699 -0.726631 6.35617
LeftToes  3.91355e-005 3.11907e-005 -4.10385e-006
588
root  9.86531 56.9915 -27.9178 175.259 21.5063 -176.121
RightUpLeg  5.4162 -2.84396 6.84513
RightLeg  21.92 7.43957 3.07084
RightFoot  -24.756 0.0188755 1.59124
RightToes  2.84633e-005 7.89722e-005 -0.000426369
Spine  1.35657 2.08899 1.72905
Spine1  2.79749 4.14465 2.5054
HEad  31.5503 7.42939 -7.36583
LeftShoulder1  -3.88251e-019 0 -3.92111e-022
LeftArm  -41.3726 26.9818 -79.032
LeftForeArm  26.0101 2.06273 2.62663
LeftHand  -0.612046 -3.16241 8.54625
RightShoulder  7.45443e-017 -2.42657e-020 1.96277e-018
RightArm  -20.1357 -20.0844 72.4189
RightForeArm  18.3328 13.2181 8.60342
RightHand  -1.20139 10.38 -9.20769
LeftUpLeg  -19.1817 3.21863 3.07285
LeftLeg  31.4943 1.92785 1.72975
LeftFoot  10.2018 -0.324029 1.45975
LeftToes  3.91355e-005 3.11907e-005 -4.10385e-006
589
root  10.2351 56.5776 -29.1111 175.36 22.1208 -175.607
RightUpLeg  7.04765 -3.28771 6.82095
RightLeg  23.6663 8.55854 3.87226
RightFoot  -27.8443 -0.0322828 1.08104
RightToes  2.84633e-005 7.89722e-005 -0.000426369
Spine  1.2036 2.19935 0.950308
Spine1  2.38868 4.19927 2.59381
HEad  32.571 7.9332 -6.53216
LeftShoulder1  -3.88251e-019 0 -3.92111e-022
LeftArm  -41.2059 28.1528 -77.8097
LeftForeArm  26.3482 2.06578 2.18276
LeftHand  -0.583456 -3.22855 8.10239
RightShoulder  7.45443e-017 -2.42657e-020 1.96277e-018
RightArm  -25.315 -18.2277 72.1579
RightForeArm  28.0806 8.6451 8.50987
RightHand  -1.19104 10.4443 -9.09768
LeftUpLeg  -14.8625 5.68515 4.02658
LeftLeg  17.3914 1.88682 0.404946
LeftFoot  18.1208 0.52535 -2.43065
LeftToes  3.91355e-005 3.11907e-005 -4.10385e-006
590
root  10.5678 55.9412 -30.4097 175.378 22.2098 -175.162
RightUpLeg  7.99527 -4.60439 6.29992
RightLeg  27.5167 9.81776 5.28975
RightFoot  -31.9764 -0.112913 0.568051
RightToes  2.84633e-005 7.89722e-005 -0.000426369
Spine  1.00469 2.00868 0.381471
Spine1  1.85357 3.63197 2.72143
HEad  33.6516 8.82586 -6.01167
LeftShoulder1  -3.88251e-019 0 -3.92111e-022
LeftArm  -41.0282 29.181 -76.5992
LeftForeArm  26.617 2.07342 1.77516
LeftHand  -0.595895 -3.38855 8.12813
RightShoulder  7.45443e-017 -2.42657e-020 1.96277e-018
RightArm  -27.1954 -16.9494 72.3749
RightForeArm  32.5453 5.63609 6.4662
RightHand  -1.11118 9.817 -8.84311
LeftUpLeg  -10.6417 4.34356 4.9948
LeftLeg  6.51612 8.36537 0.279189
LeftFoot  21.7533 1.14232 -4.30504
LeftToes  3.91355e-005 3.11907e-005 -4.10385e-006
591
root  10.8204 54.9429 -31.8737 175.56 21.6023 -174.63
RightUpLeg  7.99409 -6.84949 5.27047
RightLeg  34.1325 10.7873 7.54341
RightFoot  -36.6734 -0.354461 -0.462254
RightToes  2.84633e-005 7.89722e-005 -0.000426369
Spine  0.748685 1.71149 0.23061
Spine1  1.23113 2.87616 3.07206
HEad  33.886 9.49383 -5.98749
LeftShoulder1  -3.88251e-019 0 -3.92111e-022
LeftArm  -40.6252 28.986 -75.6243
LeftForeArm  27.0239 2.05991 1.89672
LeftHand  -0.660457 -3.39672 8.97145
RightShoulder  7.45443e-017 -2.42657e-020 1.96277e-018
RightArm  -27.9599 -17.4007 72.4013
RightForeArm  31.0225 5.00355 4.97329
RightHand  -1.03759 9.19138 -8.6164
LeftUpLeg  -9.58307 3.81629 4.94515
LeftLeg  4.16152 14.4728 0.987022
LeftFoot  22.8401 1.86801 -6.536
LeftToes  3.91355e-005 3.11907e-005 -4.10385e-006
